<?xml version="1.0" encoding="UTF-8" standalone="no"?>
<!-- Created with Inkscape (http://www.inkscape.org/) -->

<svg
   xmlns:dc="http://purl.org/dc/elements/1.1/"
   xmlns:cc="http://creativecommons.org/ns#"
   xmlns:rdf="http://www.w3.org/1999/02/22-rdf-syntax-ns#"
   xmlns:svg="http://www.w3.org/2000/svg"
   xmlns="http://www.w3.org/2000/svg"
   xmlns:sodipodi="http://sodipodi.sourceforge.net/DTD/sodipodi-0.dtd"
   xmlns:inkscape="http://www.inkscape.org/namespaces/inkscape"
   id="svg2"
   version="1.1"
   inkscape:version="0.91 r13725"
   width="382.06726"
   height="377.86392"
   viewBox="0 0 382.06726 377.86392"
   sodipodi:docname="Ct2.svg">
  <metadata
     id="metadata8">
    <rdf:RDF>
      <cc:Work
         rdf:about="">
        <dc:format>image/svg+xml</dc:format>
        <dc:type
           rdf:resource="http://purl.org/dc/dcmitype/StillImage" />
        <dc:title></dc:title>
      </cc:Work>
    </rdf:RDF>
  </metadata>
  <defs
     id="defs6" />
  <sodipodi:namedview
     pagecolor="#ffffff"
     bordercolor="#666666"
     borderopacity="1"
     objecttolerance="10"
     gridtolerance="10"
     guidetolerance="10"
     inkscape:pageopacity="0"
     inkscape:pageshadow="2"
     inkscape:window-width="1366"
     inkscape:window-height="705"
     id="namedview4"
     showgrid="false"
     fit-margin-top="0"
     fit-margin-left="0"
     fit-margin-right="0"
     fit-margin-bottom="0"
     inkscape:zoom="1.0925926"
     inkscape:cx="167.97379"
     inkscape:cy="205.57528"
     inkscape:window-x="-8"
     inkscape:window-y="-8"
     inkscape:window-maximized="1"
     inkscape:current-layer="svg2" />
  <path
     style="fill:#000000"
     d="m 93.832143,377.70851 c -21.11242,-1.8577 -38.24027,-9.3704 -53.9498,-23.6639 -5.07967,-4.6218 -9.22445,-9.2617 -14.45402,-16.1807 -13.76918,-18.2173 -21.6933501,-38.55903 -24.63923012,-63.25 -0.78557,-6.58448 -0.79042,-6.69925 -0.789000003294,-18.75003 C 0.00309288,243.82956 0.00809288,243.68561 0.81147288,236.61388 3.8992429,209.45154 12.331323,187.1783 26.838473,167.86389 c 4.20155,-5.59385 6.97785,-8.74124 11.88945,-13.47865 17.44205,-16.82352 39.5762,-26.86495 65.854217,-29.87558 5.8491,-0.67013 10.16413,-0.89373 17.25,-0.89389 9.41893,-2.1e-4 16.45393,0.70733 24.5243,2.46651 2.81888,0.61446 3.24753,0.65678 3.13248,0.30924 -0.0733,-0.22144 -0.80793,-2.37138 -1.6325,-4.77763 -4.1879,-12.22108 -6.55103,-23.299526 -7.5367,-35.332226 -0.4317,-5.27011 -0.1805,-15.74054 0.48517,-20.22219 1.44745,-9.74497 4.55305,-18.70882 9.2935,-26.82411 11.33533,-19.40526 29.8481,-32.2689795 53.35995,-37.0775195 8.94741,-1.82988004 12.47656,-2.14384004 24.24881,-2.15726004198 8.05702,-0.008999998 11.21277,0.083700002 14.75,0.43432000198 23.78074,2.35697004 41.10284,9.52191004 53.01604,21.92898954 10.0911,10.5095 15.8628,23.81769 18.161,41.875 0.5223,4.10316 0.5441,5.27143 0.6317,33.8125 l 0.091,29.562496 27.4878,0 27.4877,0 0,8.875 0,8.875 -27.514,0 -27.5139,0 0.101,78.43749 c 0.072,55.8203 0.1839,79.51883 0.3882,82.18753 1.0866,14.1947 2.8664,22.9798 6.1528,30.3708 2.6428,5.9436 6.6769,10.3147 11.1359,12.0662 2.737,1.0751 4.1001,1.2631 8.1524,1.1246 11.5357,-0.3945 21.9098,-5.7926 32.4875,-16.9049 l 2.265,-2.3794 3.5323,2.9864 c 1.9428,1.6424 3.5392,3.0494 3.5476,3.1266 0.01,0.077 -0.9624,1.3146 -2.1571,2.75 -16.583,19.9224 -33.9487,32.1717 -52.2263,36.8391 -4.9733,1.27 -10.2976,1.8956 -16.1335,1.8956 -16.3412,0 -27.5097,-5.1055 -34.278,-15.6695 -4.1837,-6.5299 -7.2493,-19.9464 -8.5584,-37.4555 -0.7323,-9.7949 -0.8715,-26.1226 -0.8765,-102.84803 l 0,-76.59801 -10.1875,0.12892 c -13.12374,0.16607 -16.40959,-0.11007 -19.08502,-1.60389 -1.7525,-0.97852 -2.07427,-2.27857 -1.23582,-4.99311 l 0.49165,-1.59176 3.69585,-2.62024 c 6.63705,-4.70547 12.79154,-10.02384 21.38334,-18.47825 l 4.9375,-4.85855 0,-10.64355 c 0,-16.290146 -0.9832,-24.346836 -4.1613,-34.143546 -7.279,-22.43841 -24.68132,-33.89158 -51.46282,-33.86975 -7.97853,0.007 -13.1474,0.60051 -19.6599,2.25929 -5.9431,1.51376 -11.92873,4.1595 -16.81873,7.43415 -10.83767,7.2576 -16.96717,16.98675 -18.90195,30.00252 -0.62447,4.20103 -0.67272,12.00412 -0.1051,16.99825 1.43353,12.612446 5.5049,26.431626 12.31518,41.800536 1.28916,3.22679 1.00971,3.11402 3.833,4.6307 11.49052,6.17273 20.25637,13.86717 24.91447,21.8693 2.14365,3.6826 3.6607,7.46721 4.5918,11.45526 0.74463,3.18937 0.7995,3.73972 0.81463,8.16974 0.0163,4.72936 0.0127,4.76038 -0.80063,7.13924 -2.35987,6.90243 -9.83935,13.83045 -16.93277,15.68438 -2.52558,0.66008 -8.05455,0.96111 -10.44213,0.56854 -5.4939,-0.90333 -10.0213,-3.56804 -14.23915,-8.3808 -2.4294,-2.77205 -4.0999,-5.54499 -5.12747,-8.51136 -0.87075,-2.51361 -0.98073,-3.27408 -1.3084,-9.04806 -0.4816,-8.46999 -2.14275,-14.38459 -5.5343,-19.70194 -1.51925,-2.3819 -5.8723,-6.79373 -8.22448,-8.33553 -4.5323,-2.97081 -10.55997,-5.08032 -17.75,-6.21197 -2.34372,-0.36888 -4.28407,-0.44829 -10.5,-0.42973 -7.48525,0.0224 -7.7029,0.0375 -11.875,0.82482 -18.364097,3.46568 -32.456667,14.02291 -43.749697,32.77435 -8.03835,13.34723 -12.95795,28.75855 -14.80482,46.37805 -0.6864,6.5483 -0.61228,22.71363 0.13445,29.32643 2.28887,20.2696 8.3123,37.3653 18.69095,53.0486 4.01332,6.0646 7.612,10.5222 12.22132,15.1383 11.71415,11.7314 24.71835,18.367 40.907197,20.8736 4.31858,0.6686 14.62793,0.9462 18.77518,0.5055 24.95962,-2.6525 47.66797,-18.6249 68.17845,-47.9549 1.27405,-1.82188 2.37365,-3.3125 2.44355,-3.3125 0.11352,0 7.3412,4.19835 7.53053,4.37425 0.0424,0.0394 -1.1815,2.58695 -2.71985,5.6612 -12.23726,24.45525 -26.38241,43.30985 -42.74693,56.97875 -12.73888,10.6405 -27.74513,18.0253 -43.11033,21.2154 -7.00125,1.4536 -10.67612,1.8124 -19.375,1.892 -4.331247,0.04 -8.381247,0.027 -8.999997,-0.027 z"
     id="path3338"
     inkscape:connector-curvature="0"
     sodipodi:nodetypes="cssscsssssscsssssssssscccccccsssssscscsssssscssscssccssssssccssccsssscsssssssssssssscssssc" />
</svg>
